<svg width="360" height="401" viewBox="0 0 360 401" fill="none" xmlns="http://www.w3.org/2000/svg">
<g filter="url(#filter0_d_504_9481)">
<circle cx="180" cy="200.5" r="80" fill="#FF7F7F" fill-opacity="0.1" style="fill:#FF7F7F;fill:color(display-p3 1.0000 0.4980 0.4980);fill-opacity:0.1;"/>
<circle cx="180" cy="200.5" r="44" fill="#FF7F7F" fill-opacity="0.25" style="fill:#FF7F7F;fill:color(display-p3 1.0000 0.4980 0.4980);fill-opacity:0.25;"/>
<circle cx="180" cy="200.5" r="24" fill="#FF7F7F" style="fill:#FF7F7F;fill:color(display-p3 1.0000 0.4963 0.4963);fill-opacity:1;"/>
<path d="M175.152 193.041C174.431 192.32 173.262 192.32 172.541 193.041C171.82 193.762 171.82 194.931 172.541 195.652L177.389 200.5L172.541 205.349C171.82 206.069 171.82 207.238 172.541 207.959C173.262 208.68 174.431 208.68 175.152 207.959L180 203.111L184.848 207.959C185.569 208.68 186.738 208.68 187.459 207.959C188.18 207.238 188.18 206.069 187.459 205.348L182.611 200.5L187.459 195.652C188.18 194.931 188.18 193.762 187.459 193.041C186.738 192.32 185.569 192.32 184.848 193.041L180 197.889L175.152 193.041Z" fill="black" style="fill:black;fill-opacity:1;"/>
</g>
<defs>
<filter id="filter0_d_504_9481" x="-20" y="0.5" width="400" height="400" filterUnits="userSpaceOnUse" color-interpolation-filters="sRGB">
<feFlood flood-opacity="0" result="BackgroundImageFix"/>
<feColorMatrix in="SourceAlpha" type="matrix" values="0 0 0 0 0 0 0 0 0 0 0 0 0 0 0 0 0 0 127 0" result="hardAlpha"/>
<feOffset/>
<feGaussianBlur stdDeviation="60"/>
<feComposite in2="hardAlpha" operator="out"/>
<feColorMatrix type="matrix" values="0 0 0 0 1 0 0 0 0 0.498039 0 0 0 0 0.498039 0 0 0 0.25 0"/>
<feBlend mode="normal" in2="BackgroundImageFix" result="effect1_dropShadow_504_9481"/>
<feBlend mode="normal" in="SourceGraphic" in2="effect1_dropShadow_504_9481" result="shape"/>
</filter>
</defs>
</svg>
