<svg width="24" height="26" viewBox="0 0 24 26" fill="none" xmlns="http://www.w3.org/2000/svg">
<path d="M9.725 13.0065L16.075 19.3565C16.325 19.6065 16.4458 19.8981 16.4375 20.2315C16.4292 20.5648 16.3 20.8565 16.05 21.1065C15.8 21.3565 15.5083 21.4815 15.175 21.4815C14.8417 21.4815 14.55 21.3565 14.3 21.1065L7.6 14.4315C7.4 14.2315 7.25 14.0065 7.15 13.7565C7.05 13.5065 7 13.2565 7 13.0065C7 12.7565 7.05 12.5065 7.15 12.2565C7.25 12.0065 7.4 11.7815 7.6 11.5815L14.3 4.88146C14.55 4.63146 14.8458 4.51062 15.1875 4.51896C15.5292 4.52729 15.825 4.65646 16.075 4.90646C16.325 5.15646 16.45 5.44812 16.45 5.78146C16.45 6.11479 16.325 6.40646 16.075 6.65646L9.725 13.0065Z" fill="white" style="fill:white;fill-opacity:1;"/>
</svg>
