<svg width="10" height="18" viewBox="0 0 10 18" fill="none" xmlns="http://www.w3.org/2000/svg">
<path id="arrow_back_ios_new" d="M2.725 9.00646L9.075 15.3565C9.325 15.6065 9.44583 15.8981 9.4375 16.2315C9.42917 16.5648 9.3 16.8565 9.05 17.1065C8.8 17.3565 8.50833 17.4815 8.175 17.4815C7.84167 17.4815 7.55 17.3565 7.3 17.1065L0.6 10.4315C0.4 10.2315 0.25 10.0065 0.15 9.75646C0.05 9.50646 0 9.25646 0 9.00646C0 8.75646 0.05 8.50646 0.15 8.25646C0.25 8.00646 0.4 7.78146 0.6 7.58146L7.3 0.881458C7.55 0.631458 7.84583 0.510625 8.1875 0.518958C8.52917 0.527291 8.825 0.656458 9.075 0.906458C9.325 1.15646 9.45 1.44812 9.45 1.78146C9.45 2.11479 9.325 2.40646 9.075 2.65646L2.725 9.00646Z" fill="currentColor" />
</svg>
