<svg width="35" height="35" viewBox="0 0 35 35" fill="currentColor" xmlns="http://www.w3.org/2000/svg">
<path d="M14.6274 13.0806C14.2003 12.6535 13.5077 12.6535 13.0806 13.0806C12.6535 13.5077 12.6535 14.2003 13.0806 14.6274L15.953 17.4999L13.0806 20.3723C12.6535 20.7993 12.6535 21.4919 13.0806 21.9191C13.5078 22.3462 14.2003 22.3462 14.6274 21.9191L17.4999 19.0467L20.3722 21.9191C20.7994 22.3462 21.4919 22.3462 21.9191 21.9191C22.3462 21.4919 22.3462 20.7993 21.9191 20.3722L19.0466 17.4999L21.9191 14.6274C22.3462 14.2003 22.3462 13.5078 21.9191 13.0806C21.4919 12.6535 20.7994 12.6535 20.3722 13.0806L17.4999 15.953L14.6274 13.0806Z" fill="currentColor" />
<path fill-rule="evenodd" clip-rule="evenodd" d="M17.4998 1.82275C8.84162 1.82275 1.82275 8.84162 1.82275 17.4998C1.82275 26.1581 8.84162 33.1769 17.4998 33.1769C26.1581 33.1769 33.1769 26.1581 33.1769 17.4998C33.1769 8.84162 26.1581 1.82275 17.4998 1.82275ZM4.01025 17.4998C4.01025 10.0498 10.0498 4.01025 17.4998 4.01025C24.9499 4.01025 30.9894 10.0498 30.9894 17.4998C30.9894 24.9499 24.9499 30.9894 17.4998 30.9894C10.0498 30.9894 4.01025 24.9499 4.01025 17.4998Z" fill="currentColor" />
</svg>
