<svg width="26" height="26" viewBox="0 0 26 26" fill="none" xmlns="http://www.w3.org/2000/svg">
<g id="documents-minimalistic_svgrepo.com">
<path id="Vector" d="M5.4165 8.66675C5.4165 5.60262 5.4165 4.07055 6.36841 3.11865C7.32031 2.16675 8.85237 2.16675 11.9165 2.16675H14.0832C17.1473 2.16675 18.6793 2.16675 19.6312 3.11865C20.5832 4.07055 20.5832 5.60262 20.5832 8.66675V17.3334C20.5832 20.3975 20.5832 21.9296 19.6312 22.8815C18.6793 23.8334 17.1473 23.8334 14.0832 23.8334H11.9165C8.85237 23.8334 7.32031 23.8334 6.36841 22.8815C5.4165 21.9296 5.4165 20.3975 5.4165 17.3334V8.66675Z" stroke="currentColor" stroke-width="1.9"/>
<path id="Vector_2" opacity="0.7" d="M9.75 14.0833H16.25" stroke="currentColor" stroke-width="2" stroke-linecap="round"/>
<path id="Vector_3" d="M9.75 9.75H16.25" stroke="currentColor" stroke-width="2" stroke-linecap="round"/>
<path id="Vector_4" opacity="0.4" d="M9.75 18.4167H13" stroke="currentColor" stroke-width="2" stroke-linecap="round"/>
<path id="Vector_5" opacity="0.5" d="M2.1665 20.5834V5.41675" stroke="currentColor" stroke-width="2" stroke-linecap="round"/>
<path id="Vector_6" opacity="0.5" d="M23.8335 20.5834V5.41675" stroke="currentColor" stroke-width="2" stroke-linecap="round"/>
</g>
</svg>
