<svg width="28" height="28" viewBox="0 0 28 28" fill="none" xmlns="http://www.w3.org/2000/svg">
<g id="settings_svgrepo.com">
<path id="Vector" d="M14 17.5C15.933 17.5 17.5 15.933 17.5 14C17.5 12.067 15.933 10.5 14 10.5C12.067 10.5 10.5 12.067 10.5 14C10.5 15.933 12.067 17.5 14 17.5Z" stroke="#CFCDD5" stroke-width="2"/>
<path id="Vector_2" d="M16.0597 2.51087C15.6308 2.33325 15.0873 2.33325 14.0001 2.33325C12.9129 2.33325 12.3693 2.33325 11.9404 2.51087C11.3687 2.74769 10.9145 3.20193 10.6777 3.77365C10.5696 4.03465 10.5273 4.33817 10.5107 4.78091C10.4864 5.43155 10.1527 6.03379 9.58884 6.35934C9.02499 6.68487 8.3366 6.67271 7.76097 6.36847C7.36927 6.16143 7.08526 6.04631 6.80517 6.00944C6.19162 5.92866 5.57112 6.09492 5.08017 6.47165C4.71194 6.7542 4.44014 7.22497 3.89655 8.1665C3.35295 9.10805 3.08115 9.57881 3.02057 10.039C2.9398 10.6525 3.10606 11.273 3.48279 11.764C3.65473 11.9881 3.8964 12.1764 4.27147 12.4121C4.82284 12.7586 5.17762 13.3488 5.17758 13.9999C5.17755 14.651 4.82279 15.2411 4.27145 15.5875C3.89634 15.8233 3.65464 16.0117 3.48267 16.2358C3.10594 16.7268 2.93968 17.3472 3.02046 17.9608C3.08104 18.4209 3.35283 18.8918 3.89643 19.8333C4.44004 20.7748 4.71184 21.2456 5.08005 21.5281C5.571 21.9048 6.19151 22.071 6.80506 21.9903C7.08512 21.9534 7.36912 21.8383 7.76079 21.6313C8.33646 21.3271 9.0249 21.3149 9.58879 21.6404C10.1527 21.966 10.4864 22.5683 10.5107 23.219C10.5273 23.6617 10.5696 23.9652 10.6777 24.2262C10.9145 24.7979 11.3687 25.2522 11.9404 25.489C12.3693 25.6666 12.9129 25.6666 14.0001 25.6666C15.0873 25.6666 15.6308 25.6666 16.0597 25.489C16.6314 25.2522 17.0857 24.7979 17.3224 24.2262C17.4305 23.9652 17.4729 23.6617 17.4895 23.2189C17.5137 22.5683 17.8474 21.966 18.4112 21.6404C18.9751 21.3148 19.6635 21.3271 20.2393 21.6313C20.6309 21.8383 20.9149 21.9533 21.1949 21.9902C21.8085 22.071 22.429 21.9048 22.9199 21.5281C23.2881 21.2455 23.56 20.7748 24.1035 19.8331C24.6472 18.8916 24.919 18.4209 24.9796 17.9608C25.0603 17.3472 24.8941 16.7267 24.5173 16.2357C24.3454 16.0116 24.1036 15.8232 23.7286 15.5875C23.1773 15.2411 22.8225 14.6509 22.8225 13.9998C22.8225 13.3487 23.1773 12.7587 23.7286 12.4123C24.1038 12.1765 24.3455 11.9882 24.5175 11.764C24.8942 11.2731 25.0604 10.6526 24.9797 10.039C24.9191 9.57889 24.6473 9.10812 24.1036 8.16659C23.5601 7.22505 23.2883 6.75428 22.9201 6.47173C22.4291 6.095 21.8086 5.92874 21.195 6.00952C20.915 6.04639 20.6311 6.1615 20.2393 6.36852C19.6637 6.67277 18.9752 6.68494 18.4114 6.35937C17.8474 6.03381 17.5137 5.43152 17.4895 4.78085C17.4729 4.33815 17.4305 4.03464 17.3224 3.77365C17.0857 3.20193 16.6314 2.74769 16.0597 2.51087Z" stroke="currentColor"  stroke-width="2"/>
</g>
</svg>
