<svg width="30" height="24" viewBox="0 0 30 24" fill="none" xmlns="http://www.w3.org/2000/svg">
<path id="bubble.left.and.bubble.right" d="M7.12507 22.4164C7.69761 22.4164 8.19985 22.1753 8.89293 21.5727L12.1173 18.6999C12.8606 19.4733 13.9755 19.8852 15.3717 19.8852H18.807L22.1519 22.7579C22.8148 23.3204 23.2869 23.6318 23.8293 23.6318C24.6329 23.6318 25.105 23.0593 25.105 22.1854V19.8852H25.567C28.0983 19.8852 29.7858 18.3383 29.7858 15.7367V9.59944C29.7858 6.95769 28.0681 5.37064 25.4867 5.37064H23.7389V4.71774C23.7389 1.9856 22.0615 0.368408 19.3092 0.368408H4.64404C1.97217 0.368408 0.214355 1.9856 0.214355 4.71774V14.1195C0.214355 16.8115 1.94203 18.4086 4.56369 18.4086H5.82931V20.98C5.82931 21.8639 6.31145 22.4164 7.12507 22.4164ZM7.6273 17.4242C7.6273 16.8215 7.25565 16.5102 6.75342 16.5102H4.88511C3.2177 16.5102 2.21324 15.576 2.21324 13.8383V4.93872C2.21324 3.201 3.22775 2.2568 4.88511 2.2568H19.0581C20.7255 2.2568 21.73 3.201 21.73 4.93872V5.37064H15.3717C12.6998 5.37064 11.0726 6.95769 11.0726 9.59944V15.7367C11.0726 16.1586 11.1128 16.5403 11.1931 16.9019L7.6273 20.2367V17.4242ZM23.317 21.4521L20.1731 18.5994C19.7311 18.1977 19.3594 18.0168 18.7668 18.0168H15.5827C14.0056 18.0168 13.0514 17.143 13.0514 15.4756V9.79028C13.0514 8.14296 14.0056 7.24899 15.5827 7.24899H25.2657C26.8527 7.24899 27.807 8.14296 27.807 9.79028V15.4756C27.807 17.1329 26.8427 18.0168 25.2657 18.0168H24.1809C23.6887 18.0168 23.317 18.3182 23.317 18.9209V21.4521Z" fill="currentColor" />
</svg>
