<svg width="21" height="23" viewBox="0 0 21 23" fill="none" xmlns="http://www.w3.org/2000/svg">
<path d="M19.7808 17.924C19.433 18.7275 19.0213 19.4672 18.5442 20.1472C17.894 21.0743 17.3616 21.716 16.9513 22.0724C16.3153 22.6573 15.6338 22.9568 14.9041 22.9739C14.3802 22.9739 13.7485 22.8248 13.013 22.5224C12.2752 22.2214 11.5972 22.0724 10.9772 22.0724C10.327 22.0724 9.62959 22.2214 8.88368 22.5224C8.13662 22.8248 7.53481 22.9824 7.07468 22.998C6.37491 23.0278 5.6774 22.7197 4.98118 22.0724C4.53681 21.6848 3.98099 21.0204 3.31515 20.0791C2.60075 19.0739 2.01342 17.9084 1.55329 16.5795C1.06051 15.1442 0.813477 13.7543 0.813477 12.4087C0.813477 10.8673 1.14654 9.53789 1.81366 8.42385C2.33796 7.529 3.03546 6.82312 3.90844 6.30493C4.78142 5.78674 5.72468 5.52267 6.74048 5.50578C7.2963 5.50578 8.02518 5.6777 8.93095 6.01559C9.83417 6.35462 10.4141 6.52655 10.6684 6.52655C10.8585 6.52655 11.5028 6.32552 12.5949 5.92473C13.6278 5.55305 14.4995 5.39916 15.2136 5.45978C17.1487 5.61595 18.6024 6.37876 19.5693 7.75303C17.8386 8.80163 16.9826 10.2703 16.9996 12.1544C17.0152 13.622 17.5476 14.8432 18.5939 15.8129C19.0681 16.2629 19.5977 16.6107 20.1868 16.8578C20.0591 17.2283 19.9242 17.5832 19.7808 17.924ZM15.3428 0.460131C15.3428 1.61039 14.9226 2.68439 14.0849 3.67847C13.0741 4.86023 11.8514 5.54311 10.5256 5.43536C10.5087 5.29736 10.4989 5.15213 10.4989 4.99951C10.4989 3.89526 10.9796 2.71349 11.8333 1.74724C12.2595 1.25801 12.8015 0.851218 13.4588 0.526714C14.1147 0.207053 14.7352 0.0302728 15.3187 0C15.3357 0.153772 15.3428 0.307569 15.3428 0.460131Z" fill="white" style="fill:white;fill-opacity:1;"/>
</svg>
