<svg width="22" height="22" viewBox="0 0 22 22" fill="currentColor" xmlns="http://www.w3.org/2000/svg">
<g clip-path="url(#clip0_504_9959)">
<path d="M11 0C8.82441 0 6.69767 0.645139 4.88873 1.85383C3.07979 3.06253 1.66989 4.7805 0.83733 6.79048C0.00476615 8.80047 -0.213071 11.0122 0.211367 13.146C0.635804 15.2798 1.68345 17.2398 3.22183 18.7782C4.76021 20.3166 6.72022 21.3642 8.85401 21.7886C10.9878 22.2131 13.1995 21.9952 15.2095 21.1627C17.2195 20.3301 18.9375 18.9202 20.1462 17.1113C21.3549 15.3023 22 13.1756 22 11C21.9969 8.08359 20.8369 5.28753 18.7747 3.22531C16.7125 1.16309 13.9164 0.00315432 11 0ZM11 20.1667C9.18701 20.1667 7.41473 19.6291 5.90728 18.6218C4.39983 17.6146 3.22491 16.1829 2.53111 14.5079C1.83731 12.8329 1.65578 10.9898 2.00947 9.21167C2.36317 7.43351 3.23621 5.80017 4.51819 4.51819C5.80017 3.23621 7.43352 2.36317 9.21168 2.00947C10.9898 1.65577 12.8329 1.8373 14.5079 2.5311C16.1829 3.22491 17.6146 4.39982 18.6218 5.90727C19.6291 7.41472 20.1667 9.18701 20.1667 11C20.164 13.4303 19.1974 15.7604 17.4789 17.4789C15.7604 19.1974 13.4303 20.164 11 20.1667Z" fill="currentColor" />
<path d="M14.9352 7.6018L9.16663 13.3704L7.06472 11.2685C6.89183 11.1015 6.66028 11.0091 6.41993 11.0112C6.17958 11.0133 5.94967 11.1097 5.77972 11.2796C5.60976 11.4496 5.51335 11.6795 5.51127 11.9199C5.50918 12.1602 5.60157 12.3917 5.76855 12.5646L8.51855 15.3146C8.69045 15.4865 8.92357 15.583 9.16663 15.583C9.4097 15.583 9.64282 15.4865 9.81472 15.3146L16.2314 8.89797C16.3984 8.72508 16.4908 8.49353 16.4887 8.25318C16.4866 8.01284 16.3902 7.78293 16.2202 7.61297C16.0503 7.44301 15.8203 7.34661 15.58 7.34452C15.3397 7.34243 15.1081 7.43482 14.9352 7.6018Z" fill="currentColor" />
</g>
<defs>
<clipPath id="clip0_504_9959">
<rect width="22" height="22" fill="currentColor"/>
</clipPath>
</defs>
</svg>
