<svg width="48" height="48" viewBox="0 0 48 48" fill="none" xmlns="http://www.w3.org/2000/svg">
<circle cx="24" cy="24" r="24" fill="#249CF3" />
<path d="M29.7076 18.3743L21.3169 26.7649L18.2596 23.7076C18.0081 23.4647 17.6713 23.3303 17.3217 23.3334C16.9722 23.3364 16.6377 23.4766 16.3905 23.7239C16.1433 23.9711 16.0031 24.3055 16.0001 24.6551C15.997 25.0047 16.1314 25.3415 16.3743 25.5929L20.3743 29.5929C20.6243 29.8429 20.9634 29.9833 21.3169 29.9833C21.6705 29.9833 22.0096 29.8429 22.2596 29.5929L31.593 20.2596C31.8358 20.0081 31.9702 19.6713 31.9672 19.3217C31.9641 18.9722 31.8239 18.6377 31.5767 18.3905C31.3295 18.1433 30.9951 18.0031 30.6455 18.0001C30.2959 17.997 29.9591 18.1314 29.7076 18.3743Z" fill="currentColor" style="fill:white;fill-opacity:1;"/>
</svg>
