<svg width="48" height="49" viewBox="0 0 48 49" fill="none" xmlns="http://www.w3.org/2000/svg">
<g id="Frame 121075661">
<circle id="Ellipse 3067" cx="24" cy="24.5" r="24" fill="#FF7F7F" />
<path id="Vector" d="M19.1516 17.0407C18.4306 16.3198 17.2617 16.3198 16.5407 17.0407C15.8198 17.7617 15.8198 18.9306 16.5407 19.6516L21.3891 24.5001L16.5408 29.3485C15.8198 30.0693 15.8198 31.2383 16.5408 31.9593C17.2617 32.6802 18.4307 32.6802 19.1516 31.9593L24.0001 27.111L28.8483 31.9593C29.5693 32.6802 30.7383 32.6802 31.4593 31.9593C32.1803 31.2383 32.1803 30.0693 31.4593 29.3483L26.6108 24.5001L31.4593 19.6516C32.1803 18.9307 32.1803 17.7618 31.4593 17.0408C30.7383 16.3198 29.5693 16.3198 28.8483 17.0408L24.0001 21.8891L19.1516 17.0407Z" fill="currentColor" style="fill:white;fill-opacity:1;"/>
</g>
</svg>
