<svg width="28" height="28" viewBox="0 0 28 28" fill="none" xmlns="http://www.w3.org/2000/svg">
<g id="Bold / Essentional, UI / Trash Bin Trash">
<g id="Vector">
<path d="M3.5 7.45022C3.5 6.88502 3.90294 6.42684 4.4 6.42684L7.50828 6.42629C8.12586 6.40849 8.67069 5.96197 8.88083 5.30139C8.88635 5.28402 8.89271 5.2626 8.9155 5.18486L9.04943 4.72791C9.13138 4.44773 9.20279 4.20363 9.3027 3.98545C9.69744 3.1235 10.4278 2.52496 11.2717 2.37171C11.4853 2.33293 11.7116 2.33309 11.9712 2.33328H16.029C16.2886 2.33309 16.5149 2.33293 16.7285 2.37171C17.5724 2.52496 18.3028 3.1235 18.6975 3.98545C18.7974 4.20363 18.8688 4.44773 18.9508 4.72791L19.0847 5.18486C19.1075 5.2626 19.1138 5.28402 19.1194 5.30139C19.3295 5.96197 19.9824 6.40904 20.6 6.42684H23.6C24.0971 6.42684 24.5 6.88502 24.5 7.45022C24.5 8.01542 24.0971 8.4736 23.6 8.4736H4.4C3.90294 8.4736 3.5 8.01542 3.5 7.45022Z" fill="#FF5959" />
<path fill-rule="evenodd" clip-rule="evenodd" d="M13.5282 25.6667H14.4718C17.7183 25.6667 19.3415 25.6667 20.397 24.6332C21.4524 23.5996 21.5604 21.9042 21.7763 18.5133L22.0875 13.6274C22.2047 11.7876 22.2632 10.8677 21.7338 10.2848C21.2043 9.70182 20.3102 9.70182 18.5219 9.70182H9.47805C7.68981 9.70182 6.79569 9.70182 6.26623 10.2848C5.73676 10.8677 5.79535 11.7876 5.91252 13.6274L6.22369 18.5133C6.43965 21.9042 6.54762 23.5996 7.60304 24.6332C8.65845 25.6667 10.2817 25.6667 13.5282 25.6667ZM11.954 14.22C11.9059 13.7138 11.4771 13.3445 10.9963 13.3951C10.5154 13.4457 10.1646 13.8971 10.2127 14.4033L10.796 20.5436C10.8441 21.0498 11.2729 21.4191 11.7537 21.3684C12.2346 21.3178 12.5854 20.8665 12.5373 20.3603L11.954 14.22ZM17.0037 13.3951C17.4846 13.4457 17.8354 13.8971 17.7873 14.4033L17.204 20.5436C17.1559 21.0498 16.7271 21.4191 16.2463 21.3684C15.7654 21.3178 15.4146 20.8665 15.4627 20.3603L16.046 14.22C16.0941 13.7138 16.5229 13.3445 17.0037 13.3951Z" fill="#FF5959" />
</g>
</g>
</svg>
