<svg width="22" height="22" viewBox="0 0 22 22" fill="none" xmlns="http://www.w3.org/2000/svg">
<g id="account-avatar-head_svgrepo.com">
<g id="Group">
<path id="Vector" d="M5.15625 8.42188C5.15625 11.6359 7.78594 14.2656 11 14.2656C14.2141 14.2656 16.8438 11.6359 16.8438 8.42188C16.8438 5.20781 14.2141 2.57812 11 2.57812C7.78594 2.57812 5.15625 5.20781 5.15625 8.42188ZM15.4688 8.42188C15.4688 10.8797 13.4578 12.8906 11 12.8906C8.54219 12.8906 6.53125 10.8797 6.53125 8.42188C6.53125 5.96406 8.54219 3.95312 11 3.95312C13.4578 3.95312 15.4688 5.96406 15.4688 8.42188Z" fill="currentColor" />
<path id="Vector_2" d="M4.19355 20.5219C6.01543 18.7 8.42168 17.7031 10.9998 17.7031C13.5779 17.7031 15.9842 18.7 17.8061 20.5219L18.7857 19.5422C16.7061 17.4797 13.9389 16.3281 10.9998 16.3281C8.06074 16.3281 5.29355 17.4797 3.21387 19.5422L4.19355 20.5219Z" fill="currentColor" />
</g>
</g>
</svg>
