<svg width="22" height="22" viewBox="0 0 22 22" fill="none" xmlns="http://www.w3.org/2000/svg">
<g id="notification-3_svgrepo.com">
<path id="Vector" d="M11.6875 2.75C11.6875 2.37031 11.3797 2.0625 11 2.0625C10.6203 2.0625 10.3125 2.37031 10.3125 2.75H11.6875ZM10.3125 3.67101C10.3125 4.0507 10.6203 4.35851 11 4.35851C11.3797 4.35851 11.6875 4.0507 11.6875 3.67101H10.3125ZM8.25834 16.4115L8.33515 15.7283L7.5126 15.6358L7.57266 16.4613L8.25834 16.4115ZM13.7417 16.4115L14.4273 16.4613L14.4874 15.6358L13.6648 15.7283L13.7417 16.4115ZM6.18906 8.093C6.63598 6.44353 7.90214 5.12339 9.5238 4.59771L9.09985 3.28971C7.03955 3.95756 5.43124 5.63215 4.86191 7.73341L6.18906 8.093ZM6.14796 8.24466L6.18906 8.093L4.86191 7.73341L4.82081 7.88508L6.14796 8.24466ZM5.98473 11.6792C5.78903 10.5361 5.84474 9.36375 6.14796 8.24466L4.82081 7.88508C4.46534 9.19701 4.40004 10.5712 4.62946 11.9112L5.98473 11.6792ZM6.00537 11.7996L5.98473 11.6792L4.62946 11.9112L4.65009 12.0317L6.00537 11.7996ZM4.8125 13.9887C4.8125 13.4688 5.1002 13.0169 5.52488 12.7853L4.8664 11.5782C4.01568 12.0423 3.4375 12.948 3.4375 13.9887H4.8125ZM5.90087 15.3288C5.26985 15.2002 4.8125 14.6415 4.8125 13.9887H3.4375C3.4375 15.2906 4.35065 16.4161 5.62638 16.6761L5.90087 15.3288ZM6.23783 15.3973L5.90087 15.3288L5.62638 16.6761L5.96335 16.7448L6.23783 15.3973ZM15.7622 15.3973C12.6194 16.0376 9.38062 16.0376 6.23783 15.3973L5.96335 16.7448C9.2873 17.4219 12.7127 17.4219 16.0366 16.7448L15.7622 15.3973ZM16.0991 15.3288L15.7622 15.3973L16.0366 16.7448L16.3736 16.6761L16.0991 15.3288ZM17.1875 13.9887C17.1875 14.6415 16.7302 15.2002 16.0991 15.3288L16.3736 16.6761C17.6493 16.4161 18.5625 15.2906 18.5625 13.9887H17.1875ZM16.4879 12.7924C16.9056 13.0261 17.1875 13.474 17.1875 13.9887H18.5625C18.5625 12.9585 17.9959 12.0606 17.1593 11.5924L16.4879 12.7924ZM16.0205 11.6487L15.9986 11.7765L17.3539 12.0086L17.3758 11.8807L16.0205 11.6487ZM15.8733 8.26519C16.1629 9.36933 16.2132 10.5232 16.0205 11.6487L17.3758 11.8807C17.6016 10.5621 17.5427 9.21012 17.2033 7.91625L15.8733 8.26519ZM15.8161 8.04712L15.8733 8.26519L17.2033 7.91625L17.146 7.69818L15.8161 8.04712ZM12.5876 4.60216C14.1737 5.126 15.3896 6.42193 15.8161 8.04712L17.146 7.69818C16.602 5.62461 15.0493 3.96714 13.0188 3.29653L12.5876 4.60216ZM9.5238 4.59771C10.5178 4.2755 11.5984 4.27549 12.5876 4.60216L13.0188 3.29653C11.749 2.87716 10.3688 2.87837 9.09985 3.28971L9.5238 4.59771ZM17.1593 11.5924C17.2907 11.666 17.3855 11.8239 17.3539 12.0086L15.9986 11.7765C15.9257 12.2021 16.144 12.5999 16.4879 12.7924L17.1593 11.5924ZM4.65009 12.0317C4.61614 11.8334 4.71819 11.6591 4.8664 11.5782L5.52488 12.7853C5.86363 12.6005 6.07608 12.2126 6.00537 11.7996L4.65009 12.0317ZM10.3125 2.75V3.67101H11.6875V2.75H10.3125ZM8.18153 17.0946C10.0546 17.3052 11.9454 17.3052 13.8185 17.0946L13.6648 15.7283C11.8938 15.9274 10.1062 15.9274 8.33515 15.7283L8.18153 17.0946ZM14.3261 17.1016C14.3778 16.8912 14.4117 16.6771 14.4273 16.4613L13.056 16.3616C13.0459 16.5003 13.0241 16.6381 12.9908 16.7733L14.3261 17.1016ZM14.251 17.4071L14.3261 17.1016L12.9908 16.7733L12.9157 17.0789L14.251 17.4071ZM11.8052 19.8425C13.0116 19.5539 13.9544 18.6131 14.251 17.4071L12.9157 17.0789C12.7414 17.7876 12.1885 18.337 11.4853 18.5052L11.8052 19.8425ZM10.1948 19.8425C10.7242 19.9691 11.2758 19.9691 11.8052 19.8425L11.4853 18.5052C11.1662 18.5816 10.8338 18.5816 10.5147 18.5052L10.1948 19.8425ZM7.74906 17.4071C8.04559 18.6131 8.98837 19.5539 10.1948 19.8425L10.5147 18.5052C9.81154 18.337 9.25861 17.7876 9.08429 17.0789L7.74906 17.4071ZM7.67392 17.1016L7.74906 17.4071L9.08429 17.0789L9.00915 16.7733L7.67392 17.1016ZM7.57266 16.4613C7.58835 16.6771 7.62219 16.8912 7.67392 17.1016L9.00915 16.7733C8.97589 16.6381 8.95413 16.5003 8.94403 16.3616L7.57266 16.4613Z" fill="currentColor" />
</g>
</svg>
