<svg width="22" height="22" viewBox="0 0 22 22" fill="none" xmlns="http://www.w3.org/2000/svg">
<g id="settings-02_svgrepo.com">
<path id="Vector" d="M8.61195 17.7569L9.1477 18.9618C9.30694 19.3204 9.5669 19.6252 9.89589 19.8391C10.225 20.0529 10.609 20.1668 11.0014 20.1667C11.3938 20.1668 11.7779 20.0529 12.1069 19.8391C12.436 19.6252 12.6959 19.3204 12.8551 18.9618L13.3909 17.7569C13.5815 17.3293 13.9024 16.9729 14.3075 16.7384C14.7153 16.5032 15.1869 16.403 15.655 16.4522L16.9659 16.5917C17.356 16.633 17.7498 16.5602 18.0995 16.3821C18.4491 16.204 18.7396 15.9283 18.9357 15.5885C19.132 15.2488 19.2255 14.8595 19.2049 14.4677C19.1843 14.0759 19.0505 13.6985 18.8196 13.3814L18.0434 12.3149C17.7671 11.9324 17.6195 11.4719 17.6217 11C17.6217 10.5294 17.7707 10.0709 18.0475 9.69022L18.8236 8.62384C19.0545 8.30664 19.1884 7.92927 19.209 7.53749C19.2296 7.14571 19.1361 6.75637 18.9397 6.41671C18.7437 6.07683 18.4532 5.80116 18.1035 5.62309C17.7539 5.44501 17.3601 5.37219 16.9699 5.41347L15.6591 5.55301C15.191 5.60217 14.7193 5.50198 14.3116 5.2668C13.9056 5.03094 13.5847 4.67262 13.3949 4.24319L12.8551 3.03828C12.6959 2.67961 12.436 2.37487 12.1069 2.16099C11.7779 1.94711 11.3938 1.83331 11.0014 1.83337C10.609 1.83331 10.225 1.94711 9.89589 2.16099C9.5669 2.37487 9.30694 2.67961 9.1477 3.03828L8.61195 4.24319C8.42214 4.67262 8.10126 5.03094 7.69529 5.2668C7.28757 5.50198 6.8159 5.60217 6.34779 5.55301L5.03288 5.41347C4.64269 5.37219 4.2489 5.44501 3.89925 5.62309C3.54962 5.80116 3.25914 6.07683 3.06307 6.41671C2.86674 6.75637 2.7732 7.14571 2.79382 7.53749C2.81442 7.92927 2.94829 8.30664 3.17918 8.62384L3.95529 9.69022C4.23207 10.0709 4.38112 10.5294 4.38103 11C4.38112 11.4707 4.23207 11.9293 3.95529 12.3099L3.17918 13.3762C2.94829 13.6934 2.81442 14.0708 2.79382 14.4626C2.7732 14.8543 2.86674 15.2437 3.06307 15.5834C3.25934 15.9231 3.54985 16.1986 3.89944 16.3767C4.24902 16.5547 4.64271 16.6276 5.03288 16.5866L6.34372 16.4471C6.81183 16.3979 7.28349 16.4981 7.69122 16.7332C8.0987 16.9685 8.42108 17.3269 8.61195 17.7569Z" stroke="currentColor"  stroke-width="1.2" stroke-linecap="round" stroke-linejoin="round"/>
<path id="Vector_2" d="M11 13.75C12.5188 13.75 13.75 12.5188 13.75 11C13.75 9.48117 12.5188 8.25 11 8.25C9.48125 8.25 8.25 9.48117 8.25 11C8.25 12.5188 9.48125 13.75 11 13.75Z" stroke="currentColor"  stroke-width="1.2" stroke-linecap="round" stroke-linejoin="round"/>
</g>
</svg>
